<svg width="50" height="50" viewBox="0 0 50 50" fill="none" xmlns="http://www.w3.org/2000/svg">
  <g clip-path="url(#clip0_21_36)">
    <path fill-rule="evenodd" clip-rule="evenodd"
      d="M25.0689 25.0677L10.2234 40C6.37936 36.1848 4 30.9033 4 25.0677C4 13.4323 13.4589 4 25.1271 4C28.2961 4 31.3022 4.69575 34 5.94242L14.9861 25.0677C19.9511 25.0677 37.5489 25.0677 25.0689 25.0677Z"
      fill="url(#paint0_linear_21_36)" />
    <path
      d="M10.2361 38.5689C6.98189 35.0031 5 30.2668 5 25.0677C5 13.9873 14.0086 5 25.1271 5C27.6342 5 30.0324 5.45658 32.244 6.29032L14.2769 24.3626L12.5818 26.0677H14.9861L22.6646 26.0677L10.2361 38.5689Z"
      stroke="black" stroke-opacity="0.15" stroke-width="2" />
    <g filter="url(#filter0_d_21_36)">
      <path fill-rule="evenodd" clip-rule="evenodd"
        d="M24.9311 24.9323L39.7766 10C43.6206 13.8152 46 19.0967 46 24.9323C46 36.5677 36.5411 46 24.8729 46C21.7039 46 18.6978 45.3043 16 44.0576L35.0139 24.9323H24.8146C23.4361 26.3189 24.5765 24.9323 24.9311 24.9323Z"
        fill="url(#paint1_linear_21_36)" />
      <path
        d="M27.3354 23.9323L39.7639 11.4311C43.0181 14.9969 45 19.7332 45 24.9323C45 36.0127 35.9914 45 24.8729 45C22.3658 45 19.9676 44.5434 17.756 43.7097L35.7231 25.6374L37.4182 23.9323H35.0139H27.3354Z"
        stroke="black" stroke-opacity="0.15" stroke-width="2" />
    </g>
  </g>
  <defs>
    <filter id="filter0_d_21_36" x="12" y="10" width="38" height="44" filterUnits="userSpaceOnUse"
      color-interpolation-filters="sRGB">
      <feFlood flood-opacity="0" result="BackgroundImageFix" />
      <feColorMatrix in="SourceAlpha" type="matrix" values="0 0 0 0 0 0 0 0 0 0 0 0 0 0 0 0 0 0 127 0"
        result="hardAlpha" />
      <feOffset dy="4" />
      <feGaussianBlur stdDeviation="2" />
      <feComposite in2="hardAlpha" operator="out" />
      <feColorMatrix type="matrix" values="0 0 0 0 0 0 0 0 0 0 0 0 0 0 0 0 0 0 0.25 0" />
      <feBlend mode="normal" in2="BackgroundImageFix" result="effect1_dropShadow_21_36" />
      <feBlend mode="normal" in="SourceGraphic" in2="effect1_dropShadow_21_36" result="shape" />
    </filter>
    <linearGradient id="paint0_linear_21_36" x1="30.2588" y1="0.657251" x2="25.1556" y2="46.1385"
      gradientUnits="userSpaceOnUse">
      <stop stop-color="#18FF66" />
      <stop offset="1" stop-color="#2B9BB3" />
    </linearGradient>
    <linearGradient id="paint1_linear_21_36" x1="42.2588" y1="6.65725" x2="37.1556" y2="52.1385"
      gradientUnits="userSpaceOnUse">
      <stop stop-color="#2B9BB3" />
      <stop offset="1" stop-color="#18FF66" />
    </linearGradient>
    <clipPath id="clip0_21_36">
      <rect width="50" height="50" fill="white" />
    </clipPath>
  </defs>
</svg>